<svg width="88" height="83" viewBox="0 0 88 83" fill="none" xmlns="http://www.w3.org/2000/svg">
<path d="M54.584 46.096L55.096 33.616H54.52L46.2 56.592L37.88 33.616H37.304L37.816 46.096V66H29.496V21.328H40.824L46.328 36.368H46.84L52.344 21.328H62.904V66H54.584V46.096Z" fill="white"/>
<path d="M37.136 66V21.328H19.856C17.68 21.328 15.7387 21.6693 14.032 22.352C12.3253 22.992 10.896 23.9307 9.744 25.168C8.54933 26.4053 7.65333 27.8987 7.056 29.648C6.45867 31.3973 6.16 33.36 6.16 35.536C6.16 37.712 6.45867 39.6747 7.056 41.424C7.65333 43.1733 8.54933 44.6667 9.744 45.904C10.896 47.1413 12.3253 48.1013 14.032 48.784C15.7387 49.424 17.68 49.744 19.856 49.744H27.472V66H37.136ZM27.472 42H22.288C20.0267 42 18.4693 41.5733 17.616 40.72C16.72 39.8667 16.272 38.4587 16.272 36.496V34.576C16.272 32.6133 16.72 31.2053 17.616 30.352C18.4693 29.4987 20.0267 29.072 22.288 29.072H27.472V42Z" fill="white"/>
<path d="M55.096 21.328H69.496C75.512 21.328 79.9707 23.248 82.872 27.088C85.7733 30.928 87.224 36.4533 87.224 43.664C87.224 50.8747 85.7733 56.4 82.872 60.24C79.9707 64.08 75.512 66 69.496 66H55.096V21.328ZM68.856 58.448C71.7147 58.448 73.8053 57.5307 75.128 55.696C76.4507 53.8613 77.112 51.1947 77.112 47.696V39.568C77.112 36.112 76.4507 33.4667 75.128 31.632C73.8053 29.7973 71.7147 28.88 68.856 28.88H64.568V58.448H68.856Z" fill="white"/>
</svg>
