<svg width="57" height="57" viewBox="0 0 57 57" fill="none" xmlns="http://www.w3.org/2000/svg">
<path d="M28.249 0C20.5747 0 19.6166 0.0353112 16.6033 0.169494C13.5948 0.310739 11.5468 0.783909 9.7459 1.48307C7.88853 2.20342 6.31129 3.17095 4.74112 4.74112C3.17095 6.31129 2.20107 7.88618 1.48307 9.7459C0.783909 11.5468 0.308385 13.5948 0.169494 16.6033C0.028249 19.6166 0 20.5747 0 28.249C0 35.9233 0.0353112 36.8814 0.169494 39.8946C0.310739 42.9008 0.783909 44.9512 1.48307 46.7521C2.20342 48.6071 3.17095 50.1867 4.74112 51.7569C6.31129 53.3247 7.88618 54.2969 9.7459 55.0149C11.5491 55.7117 13.5972 56.1896 16.6033 56.3285C19.6166 56.4697 20.5747 56.498 28.249 56.498C35.9233 56.498 36.8814 56.4627 39.8946 56.3285C42.9008 56.1872 44.9512 55.7117 46.7521 55.0149C48.6071 54.2946 50.1867 53.3247 51.7569 51.7569C53.3247 50.1867 54.2969 48.6142 55.0149 46.7521C55.7117 44.9512 56.1896 42.9008 56.3285 39.8946C56.4697 36.8814 56.498 35.9233 56.498 28.249C56.498 20.5747 56.4627 19.6166 56.3285 16.6033C56.1872 13.5972 55.7117 11.5444 55.0149 9.7459C54.2946 7.88853 53.3247 6.31129 51.7569 4.74112C50.1867 3.17095 48.6142 2.20107 46.7521 1.48307C44.9512 0.783909 42.9008 0.308385 39.8946 0.169494C36.8814 0.028249 35.9233 0 28.249 0ZM28.249 5.08482C35.7891 5.08482 36.6884 5.12248 39.6663 5.25196C42.4206 5.38143 43.9154 5.83812 44.9088 6.2289C46.2318 6.73974 47.1687 7.3518 48.1622 8.33816C49.1485 9.32687 49.7606 10.2662 50.2714 11.5891C50.6575 12.5826 51.1189 14.0774 51.2437 16.8317C51.3778 19.812 51.4084 20.7065 51.4084 28.249C51.4084 35.7915 51.3731 36.6884 51.2342 39.6663C51.0906 42.4206 50.6316 43.9154 50.2432 44.9088C49.7159 46.2318 49.1156 47.1687 48.1269 48.1622C47.1405 49.1485 46.1871 49.7606 44.8782 50.2714C43.8895 50.6575 42.3711 51.1189 39.6169 51.2437C36.6178 51.3778 35.735 51.4084 28.1784 51.4084C20.6194 51.4084 19.7366 51.3731 16.7399 51.2342C13.9832 51.0906 12.4649 50.6316 11.4762 50.2432C10.1367 49.7159 9.21623 49.1156 8.22987 48.1269C7.2388 47.1405 6.60555 46.1871 6.1112 44.8782C5.72277 43.8895 5.26608 42.3711 5.12248 39.6169C5.01655 36.6507 4.97888 35.735 4.97888 28.2137C4.97888 20.69 5.01655 19.7719 5.12248 16.7705C5.26608 14.0162 5.72277 12.5002 6.1112 11.5115C6.60555 10.1696 7.2388 9.25154 8.22987 8.26048C9.21623 7.27411 10.1367 6.63851 11.4762 6.14651C12.4649 5.75573 13.9503 5.29669 16.7046 5.15544C19.706 5.04951 20.5888 5.0142 28.1431 5.0142L28.249 5.08482ZM28.249 13.7431C20.2333 13.7431 13.7431 20.2404 13.7431 28.249C13.7431 36.2646 20.2404 42.7548 28.249 42.7548C36.2646 42.7548 42.7548 36.2576 42.7548 28.249C42.7548 20.2333 36.2576 13.7431 28.249 13.7431ZM28.249 37.6653C23.0465 37.6653 18.8327 33.4515 18.8327 28.249C18.8327 23.0465 23.0465 18.8327 28.249 18.8327C33.4515 18.8327 37.6653 23.0465 37.6653 28.249C37.6653 33.4515 33.4515 37.6653 28.249 37.6653ZM46.7191 13.1711C46.7191 15.0426 45.1984 16.561 43.3292 16.561C41.4577 16.561 39.9394 15.0402 39.9394 13.1711C39.9394 11.3019 41.4601 9.78357 43.3292 9.78357C45.196 9.78121 46.7191 11.3019 46.7191 13.1711Z" fill="white"/>
</svg>
